<?xml version="1.0" standalone="no"?>
<!DOCTYPE svg PUBLIC "-//W3C//DTD SVG 20010904//EN"
 "http://www.w3.org/TR/2001/REC-SVG-20010904/DTD/svg10.dtd">
<svg version="1.0" xmlns="http://www.w3.org/2000/svg"
 width="542.000000pt" height="542.000000pt" viewBox="0 0 542.000000 542.000000"
 preserveAspectRatio="xMidYMid meet">
<metadata>
Created by potrace 1.14, written by Peter Selinger 2001-2017
</metadata>
<g transform="translate(0.000000,542.000000) scale(0.100000,-0.100000)"
fill="#000000" stroke="none">
<path d="M4718 5393 c-9 -16 -25 -37 -35 -48 -10 -11 -34 -40 -54 -65 -65 -81
-243 -254 -329 -321 -79 -61 -242 -169 -254 -169 -9 0 -2 24 9 32 6 5 6 10 0
17 -6 6 -41 1 -95 -13 l-85 -22 -82 63 c-45 35 -84 63 -87 63 -3 0 -25 14 -50
30 -50 34 -275 148 -303 153 -10 2 -31 10 -48 17 -67 28 -212 64 -340 85 -161
27 -396 25 -570 -5 -124 -21 -291 -65 -312 -82 -7 -6 -13 -8 -13 -5 0 21 -373
-168 -400 -202 -3 -4 -18 -15 -35 -25 -32 -21 -34 -22 -85 -63 -19 -16 -42
-34 -50 -40 -13 -10 -26 -7 -65 12 -58 28 -141 35 -131 10 3 -8 9 -22 12 -31
4 -10 -14 -2 -49 20 -31 20 -59 36 -62 36 -3 0 -11 4 -18 10 -7 5 -50 38 -97
72 -88 63 -252 222 -331 317 -64 79 -142 162 -147 157 -6 -7 28 -117 51 -161
11 -22 22 -47 23 -55 2 -8 8 -16 13 -18 6 -2 11 -10 11 -18 0 -8 5 -14 10 -14
6 0 10 -5 10 -11 0 -6 9 -24 21 -40 11 -16 18 -29 15 -29 -4 0 -47 27 -96 60
-50 32 -90 56 -90 53 0 -4 -7 2 -15 13 -8 10 -15 15 -15 11 0 -13 62 -132 71
-135 5 -2 7 -7 4 -12 -2 -4 5 -18 16 -31 11 -13 30 -37 42 -53 12 -16 45 -51
72 -79 28 -27 43 -47 35 -45 -8 3 -68 26 -133 52 -65 25 -120 46 -123 46 -12
0 45 -70 112 -135 89 -88 109 -103 224 -173 l35 -22 -35 -1 c-19 0 -53 0 -75
0 l-40 2 45 -40 c25 -22 64 -50 87 -63 39 -21 40 -23 20 -33 -38 -19 -31 -40
27 -78 31 -20 60 -37 66 -37 6 0 16 -11 22 -25 6 -14 16 -25 23 -25 6 0 18 -6
27 -12 14 -12 12 -21 -22 -93 -21 -44 -36 -83 -34 -87 3 -5 0 -8 -5 -8 -6 0
-11 -10 -11 -23 0 -13 -4 -27 -9 -33 -9 -9 -38 -94 -44 -129 -2 -11 -7 -27
-10 -35 -8 -23 -27 -110 -32 -154 -3 -21 -7 -41 -10 -45 -14 -23 -21 -474 -15
-896 2 -111 -6 -614 -10 -617 -3 -3 -21 -15 -40 -29 -87 -59 -139 -125 -144
-183 -4 -42 19 -110 55 -163 16 -23 29 -45 29 -48 0 -11 -63 6 -115 32 -72 35
-132 98 -171 178 -19 38 -34 75 -34 82 0 14 -26 18 -34 5 -5 -9 34 -215 54
-284 6 -21 11 -41 12 -45 1 -11 34 -102 49 -138 7 -16 13 -32 14 -35 7 -26 60
-112 86 -139 71 -71 192 -130 298 -145 24 -3 45 -7 46 -8 0 -2 14 -37 30 -78
59 -158 210 -405 322 -530 52 -58 82 -87 198 -194 17 -15 50 -41 75 -59 25
-17 49 -37 53 -44 4 -7 12 -13 18 -13 5 0 33 -15 62 -33 83 -52 88 -55 172
-96 167 -80 280 -117 475 -152 133 -24 425 -32 525 -15 22 4 55 9 74 11 202
26 436 109 646 230 123 70 344 254 435 361 144 168 303 442 345 592 4 15 14
22 33 23 15 0 34 2 42 4 8 2 26 5 40 8 103 20 227 90 279 156 26 34 91 160 95
185 1 6 5 16 8 22 4 6 9 22 12 37 2 15 7 31 11 37 12 19 35 122 29 131 -3 5
-1 9 4 9 5 0 9 6 9 13 1 6 8 48 17 92 20 101 20 105 -4 105 -11 0 -19 -3 -18
-7 4 -22 -56 -141 -90 -178 -50 -54 -106 -92 -164 -111 -32 -9 -60 -15 -64
-12 -5 6 14 47 27 58 12 10 47 85 53 117 10 46 -22 113 -85 173 -28 27 -60 52
-70 55 -11 4 -19 10 -19 15 0 5 -9 11 -20 15 -19 6 -19 22 -23 733 -2 400 -7
743 -11 762 -4 19 -16 80 -27 135 -27 128 -69 253 -130 385 -45 97 -47 106
-31 117 9 7 26 21 37 31 11 10 41 31 68 46 43 25 77 59 77 77 0 4 -12 10 -27
14 -27 6 -26 7 23 38 27 17 51 34 54 37 3 3 22 18 43 33 50 38 48 51 -5 43
-24 -4 -59 -8 -78 -10 -40 -4 -42 -5 70 67 90 58 287 257 253 257 -13 0 -85
-27 -144 -53 -30 -13 -66 -27 -81 -30 -26 -7 -25 -5 15 35 85 86 178 223 194
286 6 26 5 26 -43 -14 -60 -50 -175 -126 -181 -120 -3 2 11 26 30 53 67 96
135 241 120 257 -3 3 -1 11 4 18 6 7 8 21 4 31 -6 15 -9 14 -23 -10z m-788
-3563 c0 -5 -2 -10 -4 -10 -3 0 -8 5 -11 10 -3 6 -1 10 4 10 6 0 11 -4 11 -10z"/>
</g>
</svg>
